# xmcd
#
# Track frame offsets: 
#        187
#        9990
#        23482
#        38470
#        54067
#        68257
#        83507
#        100322
#        115067
#        129930
#
# Disc length: 1835 seconds
#
# Revision: 2
# Processed by: cddbd v1.5.2PL0 Copyright (c) Steve Scherf et al.
# Submitted via: ExactAudioCopy v0.99pb4
#
DISCID=5907290a
DTITLE=Michael Nesmith and The First National Band - Nevada Fighter
DYEAR=1971
DGENRE=Country
TTITLE0=Grand Ennui
TTITLE1=Propinquity (I've Just Begun To Care)
TTITLE2=Here I Am
TTITLE3=Only Bound
TTITLE4=Nevada Fighter
TTITLE5=Texas Morning
TTITLE6=Tumbling Tumbleweeds
TTITLE7=I Looked Away
TTITLE8=Rainmaker
TTITLE9=Rene
EXTD=
EXTT0=
EXTT1=
EXTT2=
EXTT3=
EXTT4=
EXTT5=
EXTT6=
EXTT7=
EXTT8=
EXTT9=
PLAYORDER=
